<svg width="89" height="20" viewBox="0 0 89 20" fill="none" xmlns="http://www.w3.org/2000/svg">
    <path d="M88.7534 9.16887H86.0081V13.8863C86.0081 14.4196 86.2209 14.7565 86.6477 14.8996C87.0745 15.0415 87.7756 15.0864 88.7534 15.0332V18.6582C86.2126 18.9242 84.4533 18.6854 83.4767 17.9382C82.4989 17.1744 82.0106 15.8242 82.0106 13.8875V9.17006H79.8789V5.33224H82.0106V1.60083H86.0081V5.33224H88.7534V9.17006V9.16887Z" fill="#010101"/>
    <path d="M74.0137 5.33093H78.0111V18.6569H74.0137V17.4048C73.0713 18.489 71.7483 19.0305 70.0422 19.0305C68.3361 19.0305 66.7814 18.3554 65.5376 17.0052C64.2938 15.6372 63.6719 13.9666 63.6719 11.9945C63.6719 10.0224 64.2938 8.36122 65.5376 7.01101C66.7814 5.64306 68.2829 4.9585 70.0422 4.9585C71.8015 4.9585 73.0713 5.5 74.0137 6.58419V5.33093ZM68.5501 14.3662C69.1366 14.9527 69.9004 15.2459 70.8427 15.2459C71.785 15.2459 72.5488 14.9527 73.1352 14.3662C73.7216 13.7798 74.0148 12.9888 74.0148 11.9945C74.0148 11.0002 73.7216 10.2092 73.1352 9.62276C72.5488 9.03632 71.785 8.74311 70.8427 8.74311C69.9004 8.74311 69.1366 9.03632 68.5501 9.62276C67.9637 10.2092 67.6705 11.0002 67.6705 11.9945C67.6705 12.9888 67.9637 13.7798 68.5501 14.3662Z" fill="#010101"/>
    <path d="M56.5428 4.95752C58.0704 4.95752 59.2964 5.46355 60.221 6.4768C61.1444 7.47232 61.6067 8.8048 61.6067 10.4742V18.6571H57.6093V10.8218C57.6093 10.1467 57.4402 9.61351 57.1032 9.22216C56.7828 8.83081 56.3123 8.63573 55.6904 8.63573C55.033 8.63573 54.5175 8.858 54.1439 9.30255C53.7892 9.74711 53.6107 10.3596 53.6107 11.1411V18.6571H49.6132V10.8218C49.6132 10.1467 49.4442 9.61351 49.1072 9.22216C48.788 8.83081 48.3162 8.63573 47.6943 8.63573C47.037 8.63573 46.5215 8.858 46.1478 9.30255C45.792 9.74711 45.6146 10.3596 45.6146 11.1411V18.6571H41.6172V5.33113H45.6146V6.5572C46.3429 5.49075 47.5335 4.95752 49.1864 4.95752C50.7317 4.95752 51.8963 5.54395 52.6778 6.71682C53.4948 5.54395 54.7835 4.95752 56.5428 4.95752Z" fill="#010101"/>
    <path d="M33.8885 4.95748C35.3097 4.95748 36.492 5.44577 37.4331 6.42355C38.392 7.40134 38.872 8.75155 38.872 10.4742V18.657H34.8734V11.0606C34.8734 10.2791 34.6511 9.68322 34.2078 9.27532C33.781 8.8485 33.23 8.63568 32.5549 8.63568C31.7911 8.63568 31.1869 8.86623 30.7424 9.32852C30.2978 9.79081 30.0767 10.4742 30.0767 11.381V18.657H26.0781V0H30.0767V6.58317C30.876 5.49898 32.147 4.95748 33.8874 4.95748H33.8885Z" fill="#010101"/>
    <path d="M19.1465 5.33093H23.1439V18.6569H19.1465V17.4048C18.2053 18.489 16.8811 19.0305 15.175 19.0305C13.4689 19.0305 11.9142 18.3554 10.6704 17.0052C9.42659 15.6372 8.80469 13.9666 8.80469 11.9945C8.80469 10.0224 9.42659 8.36122 10.6704 7.01101C11.9142 5.64306 13.4157 4.9585 15.175 4.9585C16.9343 4.9585 18.2041 5.5 19.1465 6.58419V5.33093ZM13.6829 14.3662C14.2694 14.9527 15.0332 15.2459 15.9755 15.2459C16.9178 15.2459 17.6816 14.9527 18.268 14.3662C18.8544 13.7798 19.1476 12.9888 19.1476 11.9945C19.1476 11.0002 18.8544 10.2092 18.268 9.62276C17.6816 9.03632 16.9178 8.74311 15.9755 8.74311C15.0332 8.74311 14.2694 9.03632 13.6829 9.62276C13.0965 10.2092 12.8033 11.0002 12.8033 11.9945C12.8033 12.9888 13.0965 13.7798 13.6829 14.3662Z" fill="#010101"/>
    <path d="M3.99625 6.35506C4.3604 5.96608 4.92319 5.65158 5.39612 5.44822C6.30296 5.05924 7.08802 5.06397 7.99486 5.06397V9.59463C7.01708 9.43501 6.10197 9.60409 5.24951 10.1007C4.41479 10.5807 3.99743 11.4249 3.99743 12.6332V18.6571H0V5.33117H3.99743V6.35506H3.99625Z" fill="#010101"/>
</svg>
