<svg width="16" height="17" viewBox="0 0 16 17" fill="none" xmlns="http://www.w3.org/2000/svg">
    <path d="M11.7473 7.66673C11.4607 7.66673 11.234 7.4334 11.234 7.1534C11.234 6.90673 10.9873 6.3934 10.574 5.94673C10.1673 5.5134 9.72065 5.26007 9.34732 5.26007C9.06065 5.26007 8.83398 5.02673 8.83398 4.74673C8.83398 4.46673 9.06732 4.2334 9.34732 4.2334C10.014 4.2334 10.714 4.5934 11.3273 5.24007C11.9007 5.84673 12.2673 6.60007 12.2673 7.14673C12.2673 7.4334 12.034 7.66673 11.7473 7.66673Z" fill="#010101"/>
    <path d="M14.1532 7.66683C13.8665 7.66683 13.6398 7.4335 13.6398 7.1535C13.6398 4.78683 11.7132 2.86683 9.35318 2.86683C9.06651 2.86683 8.83984 2.6335 8.83984 2.3535C8.83984 2.0735 9.06651 1.8335 9.34651 1.8335C12.2798 1.8335 14.6665 4.22016 14.6665 7.1535C14.6665 7.4335 14.4332 7.66683 14.1532 7.66683Z" fill="#010101"/>
    <path d="M7.36732 10.4668L6.13398 11.7002C5.87398 11.9602 5.46065 11.9602 5.19398 11.7068C5.12065 11.6335 5.04732 11.5668 4.97398 11.4935C4.28732 10.8002 3.66732 10.0735 3.11398 9.3135C2.56732 8.5535 2.12732 7.7935 1.80732 7.04016C1.49398 6.28016 1.33398 5.5535 1.33398 4.86016C1.33398 4.40683 1.41398 3.9735 1.57398 3.5735C1.73398 3.16683 1.98732 2.7935 2.34065 2.46016C2.76732 2.04016 3.23398 1.8335 3.72732 1.8335C3.91398 1.8335 4.10065 1.8735 4.26732 1.9535C4.44065 2.0335 4.59398 2.1535 4.71398 2.32683L6.26065 4.50683C6.38065 4.6735 6.46732 4.82683 6.52732 4.9735C6.58732 5.1135 6.62065 5.2535 6.62065 5.38016C6.62065 5.54016 6.57398 5.70016 6.48065 5.8535C6.39398 6.00683 6.26732 6.16683 6.10732 6.32683L5.60065 6.8535C5.52732 6.92683 5.49398 7.0135 5.49398 7.12016C5.49398 7.1735 5.50065 7.22016 5.51398 7.2735C5.53398 7.32683 5.55398 7.36683 5.56732 7.40683C5.68732 7.62683 5.89398 7.9135 6.18732 8.26016C6.48732 8.60683 6.80732 8.96016 7.15398 9.3135C7.22065 9.38016 7.29398 9.44683 7.36065 9.5135C7.62732 9.7735 7.63398 10.2002 7.36732 10.4668Z" fill="#010101"/>
    <path d="M14.6471 12.7199C14.6471 12.9065 14.6137 13.0999 14.5471 13.2865C14.5271 13.3399 14.5071 13.3932 14.4804 13.4465C14.3671 13.6865 14.2204 13.9132 14.0271 14.1265C13.7004 14.4865 13.3404 14.7465 12.9337 14.9132C12.9271 14.9132 12.9204 14.9199 12.9137 14.9199C12.5204 15.0799 12.0937 15.1665 11.6337 15.1665C10.9537 15.1665 10.2271 15.0065 9.46039 14.6799C8.69372 14.3532 7.92706 13.9132 7.16706 13.3599C6.90706 13.1665 6.64706 12.9732 6.40039 12.7665L8.58039 10.5865C8.76706 10.7265 8.93372 10.8332 9.07372 10.9065C9.10706 10.9199 9.14706 10.9399 9.19372 10.9599C9.24706 10.9799 9.30039 10.9865 9.36039 10.9865C9.47372 10.9865 9.56039 10.9465 9.63372 10.8732L10.1404 10.3732C10.3071 10.2065 10.4671 10.0799 10.6204 9.99986C10.7737 9.90653 10.9271 9.85986 11.0937 9.85986C11.2204 9.85986 11.3537 9.88653 11.5004 9.94653C11.6471 10.0065 11.8004 10.0932 11.9671 10.2065L14.1737 11.7732C14.3471 11.8932 14.4671 12.0332 14.5404 12.1999C14.6071 12.3665 14.6471 12.5332 14.6471 12.7199Z" fill="#010101"/>
</svg>