<svg width="16" height="17" viewBox="0 0 16 17" fill="none" xmlns="http://www.w3.org/2000/svg">
    <path fill-rule="evenodd" clip-rule="evenodd" d="M12.3226 13.6931V13.6918L12.3346 13.6631L14.334 3.58313V3.55113C14.334 3.29979 14.2406 3.08046 14.0393 2.94913C13.8626 2.83379 13.6593 2.82579 13.5166 2.83646C13.3838 2.84847 13.2528 2.87531 13.126 2.91646C13.0719 2.9339 13.0185 2.95347 12.966 2.97513L12.9573 2.97846L1.81063 7.35113L1.8073 7.35246C1.77341 7.36403 1.74024 7.37761 1.70797 7.39313C1.62869 7.42874 1.55263 7.47112 1.48063 7.51979C1.3373 7.61846 1.06463 7.85046 1.11063 8.21846C1.14863 8.52379 1.35863 8.71713 1.50063 8.81779C1.58445 8.87653 1.67456 8.92573 1.7693 8.96446L1.79063 8.97379L1.7973 8.97579L1.80196 8.97779L3.75263 9.63446C3.74597 9.75646 3.75797 9.88113 3.79063 10.0045L4.7673 13.7105C4.82065 13.9125 4.93594 14.0927 5.09698 14.2258C5.25802 14.359 5.45671 14.4383 5.66515 14.4527C5.87359 14.4671 6.08131 14.4159 6.25914 14.3062C6.43697 14.1965 6.57598 14.0339 6.65663 13.8411L8.18196 12.2105L10.8013 14.2185L10.8386 14.2345C11.0766 14.3385 11.2986 14.3711 11.502 14.3438C11.7053 14.3158 11.8666 14.2305 11.988 14.1338C12.1283 14.02 12.2402 13.8751 12.3146 13.7105L12.32 13.6991L12.322 13.6951L12.3226 13.6931ZM4.7573 9.74979C4.74648 9.70867 4.74905 9.66518 4.76464 9.62562C4.78022 9.58605 4.80801 9.55249 4.84397 9.52979L11.458 5.32979C11.458 5.32979 11.8473 5.09313 11.8333 5.32979C11.8333 5.32979 11.9026 5.37113 11.694 5.56513C11.4966 5.74979 6.97996 10.1105 6.52263 10.5518C6.4972 10.5765 6.47939 10.608 6.4713 10.6425L5.73397 13.4558L4.7573 9.74979Z" fill="#F05039"/>
</svg>
