<svg width="328" height="264" viewBox="0 0 328 264" fill="none" xmlns="http://www.w3.org/2000/svg">
    <g filter="url(#filter0_b_1_19469)">
        <path
                d="M206.008 264C133.106 264 74.0078 204.902 74.0078 132C74.0078 59.0984 133.106 0 206.008 0H576.008V264H206.008Z"
                fill="url(#paint0_linear_1_19469)" fill-opacity="0.05" />
        <path
                d="M206.008 263C133.659 263 75.0078 204.349 75.0078 132C75.0078 59.6507 133.659 1 206.008 1H575.008V263H206.008Z"
                stroke="url(#paint1_linear_1_19469)" stroke-opacity="0.5" stroke-width="2" />
    </g>
    <g filter="url(#filter1_b_1_19469)">
        <path d="M132 264C59.0984 264 0 204.902 0 132C0 59.0984 59.0984 0 132 0H146V264H132Z"
              fill="url(#paint2_linear_1_19469)" fill-opacity="0.05" />
        <path d="M132 263C59.6507 263 1 204.349 1 132C1 59.6507 59.6507 1 132 1H145V263H132Z"
              stroke="url(#paint3_linear_1_19469)" stroke-opacity="0.5" stroke-width="2" />
    </g>
    <g filter="url(#filter2_b_1_19469)">
        <path d="M340 264C267.098 264 208 204.902 208 132C208 59.0984 267.098 0 340 0H710V264H340Z"
              fill="url(#paint4_linear_1_19469)" fill-opacity="0.05" />
        <path d="M340 263C267.651 263 209 204.349 209 132C209 59.6507 267.651 1 340 1H709V263H340Z"
              stroke="url(#paint5_linear_1_19469)" stroke-opacity="0.5" stroke-width="2" />
    </g>
    <defs>
        <filter id="filter0_b_1_19469" x="54.0078" y="-20" width="542" height="304" filterUnits="userSpaceOnUse"
                color-interpolation-filters="sRGB">
            <feFlood flood-opacity="0" result="BackgroundImageFix" />
            <feGaussianBlur in="BackgroundImageFix" stdDeviation="10" />
            <feComposite in2="SourceAlpha" operator="in" result="effect1_backgroundBlur_1_19469" />
            <feBlend mode="normal" in="SourceGraphic" in2="effect1_backgroundBlur_1_19469" result="shape" />
        </filter>
        <filter id="filter1_b_1_19469" x="-20" y="-20" width="186" height="304" filterUnits="userSpaceOnUse"
                color-interpolation-filters="sRGB">
            <feFlood flood-opacity="0" result="BackgroundImageFix" />
            <feGaussianBlur in="BackgroundImageFix" stdDeviation="10" />
            <feComposite in2="SourceAlpha" operator="in" result="effect1_backgroundBlur_1_19469" />
            <feBlend mode="normal" in="SourceGraphic" in2="effect1_backgroundBlur_1_19469" result="shape" />
        </filter>
        <filter id="filter2_b_1_19469" x="188" y="-20" width="542" height="304" filterUnits="userSpaceOnUse"
                color-interpolation-filters="sRGB">
            <feFlood flood-opacity="0" result="BackgroundImageFix" />
            <feGaussianBlur in="BackgroundImageFix" stdDeviation="10" />
            <feComposite in2="SourceAlpha" operator="in" result="effect1_backgroundBlur_1_19469" />
            <feBlend mode="normal" in="SourceGraphic" in2="effect1_backgroundBlur_1_19469" result="shape" />
        </filter>
        <linearGradient id="paint0_linear_1_19469" x1="95.0078" y1="154" x2="178.695" y2="137.946"
                        gradientUnits="userSpaceOnUse">
            <stop stop-color="#F05039" />
            <stop offset="1" stop-color="white" stop-opacity="0" />
        </linearGradient>
        <linearGradient id="paint1_linear_1_19469" x1="-6.09856" y1="132" x2="245.008" y2="132"
                        gradientUnits="userSpaceOnUse">
            <stop stop-color="#F05039" />
            <stop offset="1" stop-color="white" stop-opacity="0" />
        </linearGradient>
        <linearGradient id="paint2_linear_1_19469" x1="6.10757" y1="154" x2="31.2644" y2="152.596"
                        gradientUnits="userSpaceOnUse">
            <stop stop-color="#F05039" />
            <stop offset="1" stop-color="white" stop-opacity="0" />
        </linearGradient>
        <linearGradient id="paint3_linear_1_19469" x1="-23.2979" y1="132" x2="49.7331" y2="132"
                        gradientUnits="userSpaceOnUse">
            <stop stop-color="#F05039" />
            <stop offset="1" stop-color="white" stop-opacity="0" />
        </linearGradient>
        <linearGradient id="paint4_linear_1_19469" x1="237" y1="132" x2="497.045" y2="104.543"
                        gradientUnits="userSpaceOnUse">
            <stop stop-color="#F05039" />
            <stop offset="1" stop-color="white" stop-opacity="0" />
        </linearGradient>
        <linearGradient id="paint5_linear_1_19469" x1="127.894" y1="132" x2="590" y2="132"
                        gradientUnits="userSpaceOnUse">
            <stop stop-color="#F05039" />
            <stop offset="1" stop-color="white" stop-opacity="0" />
        </linearGradient>
    </defs>
</svg>