<svg width="132" height="126" viewBox="0 0 132 126" fill="none" xmlns="http://www.w3.org/2000/svg">
    <g filter="url(#filter0_b_1_19868)">
        <path d="M0 103.004C0 66.5531 29.5492 37.0039 66 37.0039C102.451 37.0039 132 66.5531 132 103.004L132 288.004H0L0 103.004Z" fill="url(#paint0_linear_1_19868)" fill-opacity="0.05"/>
        <path d="M0.5 103.004C0.5 66.8293 29.8253 37.5039 66 37.5039C102.175 37.5039 131.5 66.8293 131.5 103.004L131.5 287.504H0.5L0.5 103.004Z" stroke="url(#paint1_linear_1_19868)" stroke-opacity="0.5"/>
    </g>
    <g filter="url(#filter1_b_1_19868)">
        <path d="M0 66C0 29.5492 29.5492 0 66 0C102.451 0 132 29.5492 132 66V73L0 73L0 66Z" fill="url(#paint2_linear_1_19868)" fill-opacity="0.05"/>
        <path d="M0.5 66C0.5 29.8253 29.8253 0.5 66 0.5C102.175 0.5 131.5 29.8253 131.5 66V72.5L0.5 72.5L0.5 66Z" stroke="url(#paint3_linear_1_19868)" stroke-opacity="0.5"/>
    </g>
    <g filter="url(#filter2_b_1_19868)">
        <path d="M0 170C0 133.549 29.5492 104 66 104C102.451 104 132 133.549 132 170L132 355H0L0 170Z" fill="url(#paint4_linear_1_19868)" fill-opacity="0.05"/>
        <path d="M0.5 170C0.5 133.825 29.8253 104.5 66 104.5C102.175 104.5 131.5 133.825 131.5 170L131.5 354.5H0.5L0.5 170Z" stroke="url(#paint5_linear_1_19868)" stroke-opacity="0.5"/>
    </g>
    <defs>
        <filter id="filter0_b_1_19868" x="-10" y="27.0039" width="152" height="271" filterUnits="userSpaceOnUse" color-interpolation-filters="sRGB">
            <feFlood flood-opacity="0" result="BackgroundImageFix"/>
            <feGaussianBlur in="BackgroundImageFix" stdDeviation="5"/>
            <feComposite in2="SourceAlpha" operator="in" result="effect1_backgroundBlur_1_19868"/>
            <feBlend mode="normal" in="SourceGraphic" in2="effect1_backgroundBlur_1_19868" result="shape"/>
        </filter>
        <filter id="filter1_b_1_19868" x="-10" y="-10" width="152" height="93" filterUnits="userSpaceOnUse" color-interpolation-filters="sRGB">
            <feFlood flood-opacity="0" result="BackgroundImageFix"/>
            <feGaussianBlur in="BackgroundImageFix" stdDeviation="5"/>
            <feComposite in2="SourceAlpha" operator="in" result="effect1_backgroundBlur_1_19868"/>
            <feBlend mode="normal" in="SourceGraphic" in2="effect1_backgroundBlur_1_19868" result="shape"/>
        </filter>
        <filter id="filter2_b_1_19868" x="-10" y="94" width="152" height="271" filterUnits="userSpaceOnUse" color-interpolation-filters="sRGB">
            <feFlood flood-opacity="0" result="BackgroundImageFix"/>
            <feGaussianBlur in="BackgroundImageFix" stdDeviation="5"/>
            <feComposite in2="SourceAlpha" operator="in" result="effect1_backgroundBlur_1_19868"/>
            <feBlend mode="normal" in="SourceGraphic" in2="effect1_backgroundBlur_1_19868" result="shape"/>
        </filter>
        <linearGradient id="paint0_linear_1_19868" x1="55" y1="47.5039" x2="63.0271" y2="89.3477" gradientUnits="userSpaceOnUse">
            <stop stop-color="#F05039"/>
            <stop offset="1" stop-color="white" stop-opacity="0"/>
        </linearGradient>
        <linearGradient id="paint1_linear_1_19868" x1="66" y1="-3.04928" x2="66" y2="122.504" gradientUnits="userSpaceOnUse">
            <stop stop-color="#F05039"/>
            <stop offset="1" stop-color="white" stop-opacity="0"/>
        </linearGradient>
        <linearGradient id="paint2_linear_1_19868" x1="55" y1="3.05378" x2="55.7018" y2="15.6322" gradientUnits="userSpaceOnUse">
            <stop stop-color="#F05039"/>
            <stop offset="1" stop-color="white" stop-opacity="0"/>
        </linearGradient>
        <linearGradient id="paint3_linear_1_19868" x1="66" y1="-11.6489" x2="66" y2="24.8665" gradientUnits="userSpaceOnUse">
            <stop stop-color="#F05039"/>
            <stop offset="1" stop-color="white" stop-opacity="0"/>
        </linearGradient>
        <linearGradient id="paint4_linear_1_19868" x1="66" y1="118.5" x2="79.7283" y2="248.523" gradientUnits="userSpaceOnUse">
            <stop stop-color="#F05039"/>
            <stop offset="1" stop-color="white" stop-opacity="0"/>
        </linearGradient>
        <linearGradient id="paint5_linear_1_19868" x1="66" y1="63.9468" x2="66" y2="295" gradientUnits="userSpaceOnUse">
            <stop stop-color="#F05039"/>
            <stop offset="1" stop-color="white" stop-opacity="0"/>
        </linearGradient>
    </defs>
</svg>
