<svg width="328" height="264" viewBox="0 0 328 264" fill="none" xmlns="http://www.w3.org/2000/svg">
    <g filter="url(#filter0_b_1_2980)">
        <path
                d="M121.992 0C194.894 0 253.992 59.0984 253.992 132C253.992 204.902 194.894 264 121.992 264L-248.008 264L-248.008 0L121.992 0Z"
                fill="url(#paint0_linear_1_2980)" fill-opacity="0.05" />
        <path
                d="M121.992 1C194.341 1 252.992 59.6507 252.992 132C252.992 204.349 194.341 263 121.992 263L-247.008 263L-247.008 1L121.992 1Z"
                stroke="url(#paint1_linear_1_2980)" stroke-opacity="0.5" stroke-width="2" />
    </g>
    <g filter="url(#filter1_b_1_2980)">
        <path d="M196 0C268.902 0 328 59.0984 328 132C328 204.902 268.902 264 196 264H182L182 0L196 0Z"
              fill="url(#paint2_linear_1_2980)" fill-opacity="0.05" />
        <path d="M196 1C268.349 1 327 59.6507 327 132C327 204.349 268.349 263 196 263H183L183 1L196 1Z"
              stroke="url(#paint3_linear_1_2980)" stroke-opacity="0.5" stroke-width="2" />
    </g>
    <g filter="url(#filter2_b_1_2980)">
        <path d="M-12 0C60.9016 0 120 59.0984 120 132C120 204.902 60.9016 264 -12 264L-382 264L-382 0L-12 0Z"
              fill="url(#paint4_linear_1_2980)" fill-opacity="0.05" />
        <path d="M-12 1C60.3493 1 119 59.6507 119 132C119 204.349 60.3493 263 -12 263L-381 263L-381 1L-12 1Z"
              stroke="url(#paint5_linear_1_2980)" stroke-opacity="0.5" stroke-width="2" />
    </g>
    <defs>
        <filter id="filter0_b_1_2980" x="-268.008" y="-20" width="542" height="304" filterUnits="userSpaceOnUse"
                color-interpolation-filters="sRGB">
            <feFlood flood-opacity="0" result="BackgroundImageFix" />
            <feGaussianBlur in="BackgroundImageFix" stdDeviation="10" />
            <feComposite in2="SourceAlpha" operator="in" result="effect1_backgroundBlur_1_2980" />
            <feBlend mode="normal" in="SourceGraphic" in2="effect1_backgroundBlur_1_2980" result="shape" />
        </filter>
        <filter id="filter1_b_1_2980" x="162" y="-20" width="186" height="304" filterUnits="userSpaceOnUse"
                color-interpolation-filters="sRGB">
            <feFlood flood-opacity="0" result="BackgroundImageFix" />
            <feGaussianBlur in="BackgroundImageFix" stdDeviation="10" />
            <feComposite in2="SourceAlpha" operator="in" result="effect1_backgroundBlur_1_2980" />
            <feBlend mode="normal" in="SourceGraphic" in2="effect1_backgroundBlur_1_2980" result="shape" />
        </filter>
        <filter id="filter2_b_1_2980" x="-402" y="-20" width="542" height="304" filterUnits="userSpaceOnUse"
                color-interpolation-filters="sRGB">
            <feFlood flood-opacity="0" result="BackgroundImageFix" />
            <feGaussianBlur in="BackgroundImageFix" stdDeviation="10" />
            <feComposite in2="SourceAlpha" operator="in" result="effect1_backgroundBlur_1_2980" />
            <feBlend mode="normal" in="SourceGraphic" in2="effect1_backgroundBlur_1_2980" result="shape" />
        </filter>
        <linearGradient id="paint0_linear_1_2980" x1="232.992" y1="110" x2="149.305" y2="126.054"
                        gradientUnits="userSpaceOnUse">
            <stop stop-color="#F05039" />
            <stop offset="1" stop-color="white" stop-opacity="0" />
        </linearGradient>
        <linearGradient id="paint1_linear_1_2980" x1="334.099" y1="132" x2="82.9922" y2="132"
                        gradientUnits="userSpaceOnUse">
            <stop stop-color="#F05039" />
            <stop offset="1" stop-color="white" stop-opacity="0" />
        </linearGradient>
        <linearGradient id="paint2_linear_1_2980" x1="321.892" y1="110" x2="296.736" y2="111.404"
                        gradientUnits="userSpaceOnUse">
            <stop stop-color="#F05039" />
            <stop offset="1" stop-color="white" stop-opacity="0" />
        </linearGradient>
        <linearGradient id="paint3_linear_1_2980" x1="351.298" y1="132" x2="278.267" y2="132"
                        gradientUnits="userSpaceOnUse">
            <stop stop-color="#F05039" />
            <stop offset="1" stop-color="white" stop-opacity="0" />
        </linearGradient>
        <linearGradient id="paint4_linear_1_2980" x1="91" y1="132" x2="-169.045" y2="159.457"
                        gradientUnits="userSpaceOnUse">
            <stop stop-color="#F05039" />
            <stop offset="1" stop-color="white" stop-opacity="0" />
        </linearGradient>
        <linearGradient id="paint5_linear_1_2980" x1="200.106" y1="132" x2="-262" y2="132"
                        gradientUnits="userSpaceOnUse">
            <stop stop-color="#F05039" />
            <stop offset="1" stop-color="white" stop-opacity="0" />
        </linearGradient>
    </defs>
</svg>
